<svg width="250.76251220703125px" height="132.8px" xmlns="http://www.w3.org/2000/svg" viewBox="85.61874389648438 8.599999999999994 328.76251220703125 132.8" preserveAspectRatio="xMidYMid"><defs><linearGradient id="editing-gradow-gradient" x1="0" x2="1" y1="0" y2="0" gradientUnits="objectBoundingBox"><stop offset="0" stop-color="#f0f"></stop><stop offset="1" stop-color="#0ff"></stop></linearGradient><filter id="editing-gradow-filter" x="-100%" y="-100%" width="300%" height="300%"><feFlood flood-color="#fffcd9" result="flood"></feFlood><feComposite operator="in" in2="SourceAlpha" in="flood" result="shadow"></feComposite><feOffset dx="-3.5" dy="-3.5" in="SourceGraphic" result="offset-1"></feOffset><feOffset dx="3.5" dy="3.5" in="shadow" result="offset-2"></feOffset><feMerge><feMergeNode in="offset-2"></feMergeNode><feMergeNode in="offset-1"></feMergeNode></feMerge></filter></defs><g filter="url(#editing-gradow-filter)"><g transform="translate(138.99997466802597, 97.09499549865723)"><path d="M31.13-44.19L43.28 0L26.59 0L24.53-9.41L13.56-9.41L11.59 0L0.31 0L11.56-44.19L31.13-44.19ZM20.16-37.31L19.19-37.31L14.91-16.72L23.84-16.72L20.16-37.31ZM64.16 0L48.91 0L48.91-44.19L64.28-44.19L64.28-44.19Q69.97-44.19 74.50-42.86L74.50-42.86L74.50-42.86Q79.03-41.53 82.17-38.83L82.17-38.83L82.17-38.83Q85.31-36.13 86.98-32.05L86.98-32.05L86.98-32.05Q88.66-27.97 88.66-22.47L88.66-22.47L88.66-22.47Q88.66-18.28 87.80-14.98L87.80-14.98L87.80-14.98Q86.94-11.69 85.36-9.19L85.36-9.19L85.36-9.19Q83.78-6.69 81.55-4.95L81.55-4.95L81.55-4.95Q79.31-3.22 76.59-2.11L76.59-2.11L76.59-2.11Q73.88-1 70.73-0.50L70.73-0.50L70.73-0.50Q67.59 0 64.16 0L64.16 0ZM62.91-35.06L62.91-10L63.84-10L63.84-10Q66.28-10 68.28-10.45L68.28-10.45L68.28-10.45Q70.28-10.91 71.70-12.25L71.70-12.25L71.70-12.25Q73.13-13.59 73.89-16.03L73.89-16.03L73.89-16.03Q74.66-18.47 74.66-22.47L74.66-22.47L74.66-22.47Q74.66-26.09 73.97-28.52L73.97-28.52L73.97-28.52Q73.28-30.94 71.94-32.39L71.94-32.39L71.94-32.39Q70.59-33.84 68.63-34.45L68.63-34.45L68.63-34.45Q66.66-35.06 64.13-35.06L64.13-35.06L62.91-35.06ZM97 0L97-44.19L110-44.19L121-27L132-44.19L145.31-44.19L145.31 0L131 0L131-24L120.69-6.53L117.66-6.53L107-24L107 0L97 0ZM156 0L156-44.19L170-44.19L170 0L156 0ZM180.66 0L180.66-44.19L194.19-44.19L211-22L211-44.19L221.69-44.19L221.69 0L207.81 0L191.25-23.50L191.25 0L180.66 0Z" fill="url(#editing-gradow-gradient)"></path></g></g><style>text {
  font-size: 90px;
  font-family: Arial Black;
  dominant-baseline: central;
  text-anchor: middle;
}</style></svg>